<mxfile host="" modified="2020-08-10T23:51:13.583Z" agent="5.0 (Windows NT 10.0; Win64; x64) AppleWebKit/537.36 (KHTML, like Gecko) Code/1.45.1 Chrome/78.0.3904.130 Electron/7.2.4 Safari/537.36" etag="Rvxh8Rp5KtXMztlqZR6W" version="13.1.3" pages="3">
    <diagram id="6hGFLwfOUW9BJ-s0fimq" name="OnBeginDrag">
        <mxGraphModel dx="992" dy="577" grid="1" gridSize="10" guides="1" tooltips="1" connect="1" arrows="1" fold="1" page="1" pageScale="1" pageWidth="827" pageHeight="1169" math="0" shadow="0">
            <root>
                <mxCell id="0"/>
                <mxCell id="1" parent="0"/>
                <mxCell id="21" style="edgeStyle=orthogonalEdgeStyle;rounded=0;orthogonalLoop=1;jettySize=auto;html=1;exitX=0.5;exitY=1;exitDx=0;exitDy=0;entryX=0.5;entryY=0;entryDx=0;entryDy=0;" parent="1" source="6" target="13" edge="1">
                    <mxGeometry relative="1" as="geometry"/>
                </mxCell>
                <mxCell id="6" value="Create f.BlockGrid" style="rounded=0;whiteSpace=wrap;html=1;" parent="1" vertex="1">
                    <mxGeometry x="340" y="120" width="120" height="40" as="geometry"/>
                </mxCell>
                <mxCell id="i96UxYNNPjWOnLDI0hmt-61" style="edgeStyle=orthogonalEdgeStyle;rounded=0;orthogonalLoop=1;jettySize=auto;html=1;exitX=0.5;exitY=1;exitDx=0;exitDy=0;entryX=0.5;entryY=0;entryDx=0;entryDy=0;" parent="1" source="13" target="i96UxYNNPjWOnLDI0hmt-48" edge="1">
                    <mxGeometry relative="1" as="geometry"/>
                </mxCell>
                <mxCell id="13" value="Create PlaceHolder" style="rounded=0;whiteSpace=wrap;html=1;" parent="1" vertex="1">
                    <mxGeometry x="340" y="200" width="120" height="40" as="geometry"/>
                </mxCell>
                <mxCell id="32" style="edgeStyle=orthogonalEdgeStyle;rounded=0;orthogonalLoop=1;jettySize=auto;html=1;exitX=0.5;exitY=1;exitDx=0;exitDy=0;entryX=0.5;entryY=0;entryDx=0;entryDy=0;" parent="1" source="31" target="6" edge="1">
                    <mxGeometry relative="1" as="geometry"/>
                </mxCell>
                <mxCell id="31" value="&lt;span&gt;OnBeginDrag&lt;/span&gt;" style="ellipse;whiteSpace=wrap;html=1;" parent="1" vertex="1">
                    <mxGeometry x="340" y="40" width="120" height="40" as="geometry"/>
                </mxCell>
                <mxCell id="38" value="" style="rounded=0;whiteSpace=wrap;html=1;strokeColor=#FFFFFF;fillColor=none;dashed=1;" parent="1" vertex="1">
                    <mxGeometry x="40" y="50" width="190" height="150" as="geometry"/>
                </mxCell>
                <mxCell id="39" value="" style="rounded=1;whiteSpace=wrap;html=1;" parent="1" vertex="1">
                    <mxGeometry x="40" y="140" width="190" height="60" as="geometry"/>
                </mxCell>
                <mxCell id="40" value="" style="rounded=1;whiteSpace=wrap;html=1;" parent="1" vertex="1">
                    <mxGeometry x="40" y="80" width="190" height="60" as="geometry"/>
                </mxCell>
                <mxCell id="37" value="BlockGrid" style="rounded=0;whiteSpace=wrap;html=1;" parent="1" vertex="1">
                    <mxGeometry x="110" y="50" width="50" height="50" as="geometry"/>
                </mxCell>
                <mxCell id="i96UxYNNPjWOnLDI0hmt-46" style="edgeStyle=orthogonalEdgeStyle;rounded=0;orthogonalLoop=1;jettySize=auto;html=1;exitX=1;exitY=0.5;exitDx=0;exitDy=0;entryX=0;entryY=0.5;entryDx=0;entryDy=0;" parent="1" source="i96UxYNNPjWOnLDI0hmt-48" target="i96UxYNNPjWOnLDI0hmt-55" edge="1">
                    <mxGeometry relative="1" as="geometry"/>
                </mxCell>
                <mxCell id="i96UxYNNPjWOnLDI0hmt-47" style="edgeStyle=orthogonalEdgeStyle;rounded=0;orthogonalLoop=1;jettySize=auto;html=1;exitX=0.5;exitY=1;exitDx=0;exitDy=0;entryX=0.5;entryY=0;entryDx=0;entryDy=0;" parent="1" source="i96UxYNNPjWOnLDI0hmt-48" target="i96UxYNNPjWOnLDI0hmt-50" edge="1">
                    <mxGeometry relative="1" as="geometry"/>
                </mxCell>
                <mxCell id="i96UxYNNPjWOnLDI0hmt-48" value="If hold" style="rhombus;whiteSpace=wrap;html=1;" parent="1" vertex="1">
                    <mxGeometry x="360" y="280" width="80" height="40" as="geometry"/>
                </mxCell>
                <mxCell id="i96UxYNNPjWOnLDI0hmt-49" style="edgeStyle=orthogonalEdgeStyle;rounded=0;orthogonalLoop=1;jettySize=auto;html=1;exitX=0.5;exitY=1;exitDx=0;exitDy=0;entryX=0.5;entryY=0;entryDx=0;entryDy=0;" parent="1" source="i96UxYNNPjWOnLDI0hmt-50" target="i96UxYNNPjWOnLDI0hmt-60" edge="1">
                    <mxGeometry relative="1" as="geometry"/>
                </mxCell>
                <mxCell id="i96UxYNNPjWOnLDI0hmt-50" value="Transfer All block from o.BlockGrid to the f.BlockGrid" style="rounded=0;whiteSpace=wrap;html=1;" parent="1" vertex="1">
                    <mxGeometry x="340" y="360" width="120" height="40" as="geometry"/>
                </mxCell>
                <mxCell id="i96UxYNNPjWOnLDI0hmt-51" style="edgeStyle=orthogonalEdgeStyle;rounded=0;orthogonalLoop=1;jettySize=auto;html=1;exitX=0.5;exitY=1;exitDx=0;exitDy=0;entryX=0.5;entryY=0;entryDx=0;entryDy=0;" parent="1" source="i96UxYNNPjWOnLDI0hmt-53" target="i96UxYNNPjWOnLDI0hmt-57" edge="1">
                    <mxGeometry relative="1" as="geometry"/>
                </mxCell>
                <mxCell id="i96UxYNNPjWOnLDI0hmt-52" style="edgeStyle=orthogonalEdgeStyle;rounded=0;orthogonalLoop=1;jettySize=auto;html=1;exitX=1;exitY=0.5;exitDx=0;exitDy=0;" parent="1" source="i96UxYNNPjWOnLDI0hmt-53" edge="1">
                    <mxGeometry relative="1" as="geometry">
                        <mxPoint x="400" y="700" as="targetPoint"/>
                        <Array as="points">
                            <mxPoint x="520" y="560"/>
                            <mxPoint x="520" y="700"/>
                        </Array>
                    </mxGeometry>
                </mxCell>
                <mxCell id="i96UxYNNPjWOnLDI0hmt-53" value="&lt;font style=&quot;font-size: 12px&quot;&gt;if the o.BlockGrid doesn't have Block anymore&lt;/font&gt;" style="rhombus;whiteSpace=wrap;html=1;" parent="1" vertex="1">
                    <mxGeometry x="320" y="520" width="160" height="80" as="geometry"/>
                </mxCell>
                <mxCell id="i96UxYNNPjWOnLDI0hmt-54" style="edgeStyle=orthogonalEdgeStyle;rounded=0;orthogonalLoop=1;jettySize=auto;html=1;exitX=0.5;exitY=1;exitDx=0;exitDy=0;" parent="1" source="i96UxYNNPjWOnLDI0hmt-55" edge="1">
                    <mxGeometry relative="1" as="geometry">
                        <mxPoint x="400" y="420" as="targetPoint"/>
                        <Array as="points">
                            <mxPoint x="520" y="420"/>
                        </Array>
                    </mxGeometry>
                </mxCell>
                <mxCell id="i96UxYNNPjWOnLDI0hmt-55" value="Transfer target&amp;nbsp;block to the f.BlockGrid" style="rounded=0;whiteSpace=wrap;html=1;" parent="1" vertex="1">
                    <mxGeometry x="470" y="280" width="100" height="40" as="geometry"/>
                </mxCell>
                <mxCell id="i96UxYNNPjWOnLDI0hmt-56" style="edgeStyle=orthogonalEdgeStyle;rounded=0;orthogonalLoop=1;jettySize=auto;html=1;exitX=0.5;exitY=1;exitDx=0;exitDy=0;entryX=0.5;entryY=0;entryDx=0;entryDy=0;" parent="1" source="i96UxYNNPjWOnLDI0hmt-57" target="i96UxYNNPjWOnLDI0hmt-58" edge="1">
                    <mxGeometry relative="1" as="geometry"/>
                </mxCell>
                <mxCell id="i96UxYNNPjWOnLDI0hmt-57" value="Turn off o.BlockGrid's blocksRaycasts" style="rounded=0;whiteSpace=wrap;html=1;" parent="1" vertex="1">
                    <mxGeometry x="340" y="640" width="120" height="40" as="geometry"/>
                </mxCell>
                <mxCell id="i96UxYNNPjWOnLDI0hmt-58" value="OnDrag" style="ellipse;whiteSpace=wrap;html=1;strokeColor=#FFFFFF;" parent="1" vertex="1">
                    <mxGeometry x="340" y="720" width="120" height="40" as="geometry"/>
                </mxCell>
                <mxCell id="i96UxYNNPjWOnLDI0hmt-59" style="edgeStyle=orthogonalEdgeStyle;rounded=0;orthogonalLoop=1;jettySize=auto;html=1;exitX=0.5;exitY=1;exitDx=0;exitDy=0;entryX=0.5;entryY=0;entryDx=0;entryDy=0;" parent="1" source="i96UxYNNPjWOnLDI0hmt-60" target="i96UxYNNPjWOnLDI0hmt-53" edge="1">
                    <mxGeometry relative="1" as="geometry"/>
                </mxCell>
                <mxCell id="i96UxYNNPjWOnLDI0hmt-60" value="GameManager target set to f.BlockGrid" style="rounded=0;whiteSpace=wrap;html=1;" parent="1" vertex="1">
                    <mxGeometry x="340" y="440" width="120" height="40" as="geometry"/>
                </mxCell>
            </root>
        </mxGraphModel>
    </diagram>
    <diagram name="OnDrag" id="4AL2UHnCN3KHWTjb2BED">
        <mxGraphModel dx="992" dy="577" grid="1" gridSize="10" guides="1" tooltips="1" connect="1" arrows="1" fold="1" page="1" pageScale="1" pageWidth="827" pageHeight="1169" math="0" shadow="0">
            <root>
                <mxCell id="wO-OsxOiEzW93JoE6HdS-0"/>
                <mxCell id="wO-OsxOiEzW93JoE6HdS-1" parent="wO-OsxOiEzW93JoE6HdS-0"/>
                <mxCell id="geOcQRhZZUnDdlZQxwoY-46" style="edgeStyle=orthogonalEdgeStyle;rounded=0;orthogonalLoop=1;jettySize=auto;html=1;exitX=0.5;exitY=1;exitDx=0;exitDy=0;" parent="wO-OsxOiEzW93JoE6HdS-1" source="wO-OsxOiEzW93JoE6HdS-3" target="wO-OsxOiEzW93JoE6HdS-6" edge="1">
                    <mxGeometry relative="1" as="geometry"/>
                </mxCell>
                <mxCell id="wO-OsxOiEzW93JoE6HdS-3" value="target position to mouse" style="rounded=0;whiteSpace=wrap;html=1;" parent="wO-OsxOiEzW93JoE6HdS-1" vertex="1">
                    <mxGeometry x="460" y="120" width="120" height="40" as="geometry"/>
                </mxCell>
                <mxCell id="geOcQRhZZUnDdlZQxwoY-3" style="edgeStyle=orthogonalEdgeStyle;rounded=0;orthogonalLoop=1;jettySize=auto;html=1;exitX=0.5;exitY=1;exitDx=0;exitDy=0;entryX=0.5;entryY=0;entryDx=0;entryDy=0;" parent="wO-OsxOiEzW93JoE6HdS-1" source="wO-OsxOiEzW93JoE6HdS-6" target="geOcQRhZZUnDdlZQxwoY-2" edge="1">
                    <mxGeometry relative="1" as="geometry"/>
                </mxCell>
                <mxCell id="geOcQRhZZUnDdlZQxwoY-47" style="edgeStyle=orthogonalEdgeStyle;rounded=0;orthogonalLoop=1;jettySize=auto;html=1;exitX=1;exitY=0.5;exitDx=0;exitDy=0;entryX=0.5;entryY=0;entryDx=0;entryDy=0;" parent="wO-OsxOiEzW93JoE6HdS-1" source="wO-OsxOiEzW93JoE6HdS-6" target="wO-OsxOiEzW93JoE6HdS-15" edge="1">
                    <mxGeometry relative="1" as="geometry"/>
                </mxCell>
                <mxCell id="wO-OsxOiEzW93JoE6HdS-6" value="If there is other blockGrid mouse is pointing" style="rhombus;whiteSpace=wrap;html=1;" parent="wO-OsxOiEzW93JoE6HdS-1" vertex="1">
                    <mxGeometry x="440" y="200" width="160" height="80" as="geometry"/>
                </mxCell>
                <mxCell id="geOcQRhZZUnDdlZQxwoY-51" style="edgeStyle=orthogonalEdgeStyle;rounded=0;orthogonalLoop=1;jettySize=auto;html=1;exitX=0.5;exitY=1;exitDx=0;exitDy=0;endArrow=none;endFill=0;" parent="wO-OsxOiEzW93JoE6HdS-1" source="wO-OsxOiEzW93JoE6HdS-15" edge="1">
                    <mxGeometry relative="1" as="geometry">
                        <mxPoint x="920" y="940.0000000000002" as="targetPoint"/>
                        <Array as="points">
                            <mxPoint x="1000" y="940"/>
                        </Array>
                    </mxGeometry>
                </mxCell>
                <mxCell id="wO-OsxOiEzW93JoE6HdS-15" value="no preSelectedBlockGrids" style="rounded=0;whiteSpace=wrap;html=1;" parent="wO-OsxOiEzW93JoE6HdS-1" vertex="1">
                    <mxGeometry x="920" y="280" width="160" height="40" as="geometry"/>
                </mxCell>
                <mxCell id="wO-OsxOiEzW93JoE6HdS-18" style="edgeStyle=orthogonalEdgeStyle;rounded=0;orthogonalLoop=1;jettySize=auto;html=1;exitX=0.5;exitY=1;exitDx=0;exitDy=0;entryX=0.5;entryY=0;entryDx=0;entryDy=0;" parent="wO-OsxOiEzW93JoE6HdS-1" source="wO-OsxOiEzW93JoE6HdS-19" target="wO-OsxOiEzW93JoE6HdS-3" edge="1">
                    <mxGeometry relative="1" as="geometry"/>
                </mxCell>
                <mxCell id="wO-OsxOiEzW93JoE6HdS-19" value="&lt;span&gt;OnDrag&lt;/span&gt;" style="ellipse;whiteSpace=wrap;html=1;" parent="wO-OsxOiEzW93JoE6HdS-1" vertex="1">
                    <mxGeometry x="460" y="40" width="120" height="40" as="geometry"/>
                </mxCell>
                <mxCell id="wO-OsxOiEzW93JoE6HdS-20" value="" style="rounded=0;whiteSpace=wrap;html=1;strokeColor=#FFFFFF;fillColor=none;dashed=1;" parent="wO-OsxOiEzW93JoE6HdS-1" vertex="1">
                    <mxGeometry x="40" y="50" width="190" height="150" as="geometry"/>
                </mxCell>
                <mxCell id="wO-OsxOiEzW93JoE6HdS-21" value="" style="rounded=1;whiteSpace=wrap;html=1;" parent="wO-OsxOiEzW93JoE6HdS-1" vertex="1">
                    <mxGeometry x="40" y="140" width="190" height="60" as="geometry"/>
                </mxCell>
                <mxCell id="wO-OsxOiEzW93JoE6HdS-22" value="" style="rounded=1;whiteSpace=wrap;html=1;" parent="wO-OsxOiEzW93JoE6HdS-1" vertex="1">
                    <mxGeometry x="40" y="80" width="190" height="60" as="geometry"/>
                </mxCell>
                <mxCell id="wO-OsxOiEzW93JoE6HdS-23" value="BlockGrid" style="rounded=0;whiteSpace=wrap;html=1;" parent="wO-OsxOiEzW93JoE6HdS-1" vertex="1">
                    <mxGeometry x="110" y="50" width="50" height="50" as="geometry"/>
                </mxCell>
                <mxCell id="geOcQRhZZUnDdlZQxwoY-27" style="edgeStyle=orthogonalEdgeStyle;rounded=0;orthogonalLoop=1;jettySize=auto;html=1;exitX=0.5;exitY=1;exitDx=0;exitDy=0;entryX=0.5;entryY=0;entryDx=0;entryDy=0;" parent="wO-OsxOiEzW93JoE6HdS-1" source="geOcQRhZZUnDdlZQxwoY-2" target="geOcQRhZZUnDdlZQxwoY-6" edge="1">
                    <mxGeometry relative="1" as="geometry"/>
                </mxCell>
                <mxCell id="geOcQRhZZUnDdlZQxwoY-2" value="Sort out the blockGrid priority" style="ellipse;whiteSpace=wrap;html=1;strokeColor=#FFFFFF;" parent="wO-OsxOiEzW93JoE6HdS-1" vertex="1">
                    <mxGeometry x="460" y="320" width="120" height="40" as="geometry"/>
                </mxCell>
                <mxCell id="geOcQRhZZUnDdlZQxwoY-4" value="preSelectedBlockGrids:&lt;br&gt;Resize to normal after mouse leave" style="text;html=1;strokeColor=none;fillColor=none;align=left;verticalAlign=top;whiteSpace=wrap;rounded=0;" parent="wO-OsxOiEzW93JoE6HdS-1" vertex="1">
                    <mxGeometry x="40" y="280" width="210" height="90" as="geometry"/>
                </mxCell>
                <mxCell id="geOcQRhZZUnDdlZQxwoY-28" style="edgeStyle=orthogonalEdgeStyle;rounded=0;orthogonalLoop=1;jettySize=auto;html=1;exitX=0.5;exitY=1;exitDx=0;exitDy=0;entryX=0.5;entryY=0;entryDx=0;entryDy=0;" parent="wO-OsxOiEzW93JoE6HdS-1" source="geOcQRhZZUnDdlZQxwoY-6" target="geOcQRhZZUnDdlZQxwoY-8" edge="1">
                    <mxGeometry relative="1" as="geometry"/>
                </mxCell>
                <mxCell id="geOcQRhZZUnDdlZQxwoY-6" value="Check BlockGridType" style="rounded=0;whiteSpace=wrap;html=1;strokeColor=#FFFFFF;" parent="wO-OsxOiEzW93JoE6HdS-1" vertex="1">
                    <mxGeometry x="460" y="400" width="120" height="40" as="geometry"/>
                </mxCell>
                <mxCell id="geOcQRhZZUnDdlZQxwoY-15" style="edgeStyle=orthogonalEdgeStyle;rounded=0;orthogonalLoop=1;jettySize=auto;html=1;exitX=0.5;exitY=1;exitDx=0;exitDy=0;entryX=0.5;entryY=0;entryDx=0;entryDy=0;" parent="wO-OsxOiEzW93JoE6HdS-1" source="geOcQRhZZUnDdlZQxwoY-8" target="geOcQRhZZUnDdlZQxwoY-14" edge="1">
                    <mxGeometry relative="1" as="geometry"/>
                </mxCell>
                <mxCell id="geOcQRhZZUnDdlZQxwoY-48" style="edgeStyle=orthogonalEdgeStyle;rounded=0;orthogonalLoop=1;jettySize=auto;html=1;exitX=1;exitY=0.5;exitDx=0;exitDy=0;" parent="wO-OsxOiEzW93JoE6HdS-1" source="geOcQRhZZUnDdlZQxwoY-8" edge="1">
                    <mxGeometry relative="1" as="geometry">
                        <mxPoint x="520" y="940.0000000000002" as="targetPoint"/>
                        <Array as="points">
                            <mxPoint x="920" y="520"/>
                            <mxPoint x="920" y="940"/>
                        </Array>
                    </mxGeometry>
                </mxCell>
                <mxCell id="geOcQRhZZUnDdlZQxwoY-8" value="If d.BlockGrid's&amp;nbsp;parent is a beam (meaning it's inside a container block), Does the f.BlockGrid allow its top and bottom to connect?" style="rhombus;whiteSpace=wrap;html=1;" parent="wO-OsxOiEzW93JoE6HdS-1" vertex="1">
                    <mxGeometry x="360" y="480" width="320" height="80" as="geometry"/>
                </mxCell>
                <mxCell id="geOcQRhZZUnDdlZQxwoY-13" value="accessAllow = True" style="text;html=1;strokeColor=none;fillColor=none;align=center;verticalAlign=middle;whiteSpace=wrap;rounded=0;" parent="wO-OsxOiEzW93JoE6HdS-1" vertex="1">
                    <mxGeometry x="370" y="590" width="110" height="20" as="geometry"/>
                </mxCell>
                <mxCell id="geOcQRhZZUnDdlZQxwoY-17" style="edgeStyle=orthogonalEdgeStyle;rounded=0;orthogonalLoop=1;jettySize=auto;html=1;exitX=0.5;exitY=1;exitDx=0;exitDy=0;entryX=0.5;entryY=0;entryDx=0;entryDy=0;" parent="wO-OsxOiEzW93JoE6HdS-1" source="geOcQRhZZUnDdlZQxwoY-14" target="geOcQRhZZUnDdlZQxwoY-16" edge="1">
                    <mxGeometry relative="1" as="geometry"/>
                </mxCell>
                <mxCell id="geOcQRhZZUnDdlZQxwoY-23" style="edgeStyle=orthogonalEdgeStyle;rounded=0;orthogonalLoop=1;jettySize=auto;html=1;exitX=1;exitY=0.5;exitDx=0;exitDy=0;entryX=0.5;entryY=0;entryDx=0;entryDy=0;" parent="wO-OsxOiEzW93JoE6HdS-1" source="geOcQRhZZUnDdlZQxwoY-14" target="geOcQRhZZUnDdlZQxwoY-19" edge="1">
                    <mxGeometry relative="1" as="geometry"/>
                </mxCell>
                <mxCell id="geOcQRhZZUnDdlZQxwoY-14" value="Do we know which place we want to insert it in?" style="rhombus;whiteSpace=wrap;html=1;" parent="wO-OsxOiEzW93JoE6HdS-1" vertex="1">
                    <mxGeometry x="440" y="600" width="160" height="80" as="geometry"/>
                </mxCell>
                <mxCell id="geOcQRhZZUnDdlZQxwoY-25" style="edgeStyle=orthogonalEdgeStyle;rounded=0;orthogonalLoop=1;jettySize=auto;html=1;exitX=0.5;exitY=1;exitDx=0;exitDy=0;entryX=0.5;entryY=0;entryDx=0;entryDy=0;" parent="wO-OsxOiEzW93JoE6HdS-1" source="geOcQRhZZUnDdlZQxwoY-16" target="geOcQRhZZUnDdlZQxwoY-24" edge="1">
                    <mxGeometry relative="1" as="geometry"/>
                </mxCell>
                <mxCell id="geOcQRhZZUnDdlZQxwoY-16" value="Find which stack it want to insert" style="ellipse;whiteSpace=wrap;html=1;rounded=0;strokeColor=#FFFFFF;" parent="wO-OsxOiEzW93JoE6HdS-1" vertex="1">
                    <mxGeometry x="460" y="720" width="120" height="40" as="geometry"/>
                </mxCell>
                <mxCell id="geOcQRhZZUnDdlZQxwoY-21" style="edgeStyle=orthogonalEdgeStyle;rounded=0;orthogonalLoop=1;jettySize=auto;html=1;exitX=0.5;exitY=1;exitDx=0;exitDy=0;entryX=0.5;entryY=0;entryDx=0;entryDy=0;" parent="wO-OsxOiEzW93JoE6HdS-1" source="geOcQRhZZUnDdlZQxwoY-19" target="geOcQRhZZUnDdlZQxwoY-20" edge="1">
                    <mxGeometry relative="1" as="geometry"/>
                </mxCell>
                <mxCell id="geOcQRhZZUnDdlZQxwoY-19" value="Did the mouse leave the place holder to another block?" style="rhombus;whiteSpace=wrap;html=1;" parent="wO-OsxOiEzW93JoE6HdS-1" vertex="1">
                    <mxGeometry x="640" y="680" width="200" height="80" as="geometry"/>
                </mxCell>
                <mxCell id="geOcQRhZZUnDdlZQxwoY-26" style="edgeStyle=orthogonalEdgeStyle;rounded=0;orthogonalLoop=1;jettySize=auto;html=1;exitX=0.5;exitY=1;exitDx=0;exitDy=0;" parent="wO-OsxOiEzW93JoE6HdS-1" source="geOcQRhZZUnDdlZQxwoY-20" edge="1">
                    <mxGeometry relative="1" as="geometry">
                        <mxPoint x="520" y="860" as="targetPoint"/>
                        <Array as="points">
                            <mxPoint x="740" y="860"/>
                        </Array>
                    </mxGeometry>
                </mxCell>
                <mxCell id="geOcQRhZZUnDdlZQxwoY-20" value="Change whichstack variable" style="rounded=0;whiteSpace=wrap;html=1;strokeColor=#FFFFFF;" parent="wO-OsxOiEzW93JoE6HdS-1" vertex="1">
                    <mxGeometry x="680" y="800" width="120" height="40" as="geometry"/>
                </mxCell>
                <mxCell id="geOcQRhZZUnDdlZQxwoY-30" style="edgeStyle=orthogonalEdgeStyle;rounded=0;orthogonalLoop=1;jettySize=auto;html=1;exitX=0.5;exitY=1;exitDx=0;exitDy=0;entryX=0.5;entryY=0;entryDx=0;entryDy=0;" parent="wO-OsxOiEzW93JoE6HdS-1" source="geOcQRhZZUnDdlZQxwoY-24" target="geOcQRhZZUnDdlZQxwoY-29" edge="1">
                    <mxGeometry relative="1" as="geometry"/>
                </mxCell>
                <mxCell id="geOcQRhZZUnDdlZQxwoY-24" value="Resize d.Grid" style="ellipse;whiteSpace=wrap;html=1;rounded=0;strokeColor=#FFFFFF;" parent="wO-OsxOiEzW93JoE6HdS-1" vertex="1">
                    <mxGeometry x="460" y="880" width="120" height="40" as="geometry"/>
                </mxCell>
                <mxCell id="geOcQRhZZUnDdlZQxwoY-32" style="edgeStyle=orthogonalEdgeStyle;rounded=0;orthogonalLoop=1;jettySize=auto;html=1;exitX=0.5;exitY=1;exitDx=0;exitDy=0;entryX=0.5;entryY=0;entryDx=0;entryDy=0;" parent="wO-OsxOiEzW93JoE6HdS-1" source="geOcQRhZZUnDdlZQxwoY-29" target="geOcQRhZZUnDdlZQxwoY-31" edge="1">
                    <mxGeometry relative="1" as="geometry"/>
                </mxCell>
                <mxCell id="geOcQRhZZUnDdlZQxwoY-37" style="edgeStyle=orthogonalEdgeStyle;rounded=0;orthogonalLoop=1;jettySize=auto;html=1;exitX=1;exitY=0.5;exitDx=0;exitDy=0;entryX=0.5;entryY=0;entryDx=0;entryDy=0;" parent="wO-OsxOiEzW93JoE6HdS-1" source="geOcQRhZZUnDdlZQxwoY-29" target="geOcQRhZZUnDdlZQxwoY-33" edge="1">
                    <mxGeometry relative="1" as="geometry"/>
                </mxCell>
                <mxCell id="geOcQRhZZUnDdlZQxwoY-29" value="if accessAllow" style="rhombus;whiteSpace=wrap;html=1;" parent="wO-OsxOiEzW93JoE6HdS-1" vertex="1">
                    <mxGeometry x="440" y="960" width="160" height="80" as="geometry"/>
                </mxCell>
                <mxCell id="geOcQRhZZUnDdlZQxwoY-43" style="edgeStyle=orthogonalEdgeStyle;rounded=0;orthogonalLoop=1;jettySize=auto;html=1;exitX=0.5;exitY=1;exitDx=0;exitDy=0;entryX=0.5;entryY=0;entryDx=0;entryDy=0;" parent="wO-OsxOiEzW93JoE6HdS-1" source="geOcQRhZZUnDdlZQxwoY-31" target="geOcQRhZZUnDdlZQxwoY-42" edge="1">
                    <mxGeometry relative="1" as="geometry"/>
                </mxCell>
                <mxCell id="geOcQRhZZUnDdlZQxwoY-31" value="&lt;span&gt;Set placeholder to the d.Grid and right position&lt;/span&gt;" style="rounded=0;whiteSpace=wrap;html=1;strokeColor=#FFFFFF;" parent="wO-OsxOiEzW93JoE6HdS-1" vertex="1">
                    <mxGeometry x="460" y="1080" width="120" height="40" as="geometry"/>
                </mxCell>
                <mxCell id="geOcQRhZZUnDdlZQxwoY-44" style="edgeStyle=orthogonalEdgeStyle;rounded=0;orthogonalLoop=1;jettySize=auto;html=1;exitX=0.5;exitY=1;exitDx=0;exitDy=0;" parent="wO-OsxOiEzW93JoE6HdS-1" source="geOcQRhZZUnDdlZQxwoY-33" edge="1">
                    <mxGeometry relative="1" as="geometry">
                        <mxPoint x="520" y="1140" as="targetPoint"/>
                        <Array as="points">
                            <mxPoint x="700" y="1140"/>
                        </Array>
                    </mxGeometry>
                </mxCell>
                <mxCell id="geOcQRhZZUnDdlZQxwoY-33" value="Set placeholder outside of player view" style="rounded=0;whiteSpace=wrap;html=1;strokeColor=#FFFFFF;" parent="wO-OsxOiEzW93JoE6HdS-1" vertex="1">
                    <mxGeometry x="640" y="1040" width="120" height="40" as="geometry"/>
                </mxCell>
                <mxCell id="geOcQRhZZUnDdlZQxwoY-38" value="" style="endArrow=none;dashed=1;html=1;" parent="wO-OsxOiEzW93JoE6HdS-1" edge="1">
                    <mxGeometry width="50" height="50" relative="1" as="geometry">
                        <mxPoint x="360" y="930" as="sourcePoint"/>
                        <mxPoint x="360" y="590" as="targetPoint"/>
                    </mxGeometry>
                </mxCell>
                <mxCell id="geOcQRhZZUnDdlZQxwoY-39" value="" style="endArrow=none;dashed=1;html=1;entryX=0;entryY=1;entryDx=0;entryDy=0;" parent="wO-OsxOiEzW93JoE6HdS-1" edge="1">
                    <mxGeometry width="50" height="50" relative="1" as="geometry">
                        <mxPoint x="880" y="930" as="sourcePoint"/>
                        <mxPoint x="360" y="930" as="targetPoint"/>
                    </mxGeometry>
                </mxCell>
                <mxCell id="geOcQRhZZUnDdlZQxwoY-40" value="" style="endArrow=none;dashed=1;html=1;" parent="wO-OsxOiEzW93JoE6HdS-1" edge="1">
                    <mxGeometry width="50" height="50" relative="1" as="geometry">
                        <mxPoint x="880" y="590" as="sourcePoint"/>
                        <mxPoint x="880" y="930" as="targetPoint"/>
                    </mxGeometry>
                </mxCell>
                <mxCell id="geOcQRhZZUnDdlZQxwoY-41" value="" style="endArrow=none;dashed=1;html=1;" parent="wO-OsxOiEzW93JoE6HdS-1" edge="1">
                    <mxGeometry width="50" height="50" relative="1" as="geometry">
                        <mxPoint x="880" y="589.17" as="sourcePoint"/>
                        <mxPoint x="360" y="589.17" as="targetPoint"/>
                    </mxGeometry>
                </mxCell>
                <mxCell id="geOcQRhZZUnDdlZQxwoY-45" style="edgeStyle=orthogonalEdgeStyle;rounded=0;orthogonalLoop=1;jettySize=auto;html=1;exitX=0.5;exitY=1;exitDx=0;exitDy=0;entryX=0.5;entryY=0;entryDx=0;entryDy=0;" parent="wO-OsxOiEzW93JoE6HdS-1" source="geOcQRhZZUnDdlZQxwoY-42" target="wO-OsxOiEzW93JoE6HdS-19" edge="1">
                    <mxGeometry relative="1" as="geometry">
                        <Array as="points">
                            <mxPoint x="520" y="1280"/>
                            <mxPoint x="320" y="1280"/>
                            <mxPoint x="320" y="20"/>
                            <mxPoint x="520" y="20"/>
                        </Array>
                    </mxGeometry>
                </mxCell>
                <mxCell id="geOcQRhZZUnDdlZQxwoY-56" style="edgeStyle=orthogonalEdgeStyle;rounded=0;orthogonalLoop=1;jettySize=auto;html=1;exitX=0.5;exitY=1;exitDx=0;exitDy=0;entryX=0.5;entryY=0;entryDx=0;entryDy=0;endArrow=classic;endFill=1;" parent="wO-OsxOiEzW93JoE6HdS-1" source="geOcQRhZZUnDdlZQxwoY-42" target="geOcQRhZZUnDdlZQxwoY-54" edge="1">
                    <mxGeometry relative="1" as="geometry"/>
                </mxCell>
                <mxCell id="geOcQRhZZUnDdlZQxwoY-42" value="Resize&amp;nbsp;&lt;span style=&quot;text-align: left&quot;&gt;preSelectedBlockGrids back to normal size&lt;/span&gt;" style="ellipse;whiteSpace=wrap;html=1;rounded=0;strokeColor=#FFFFFF;" parent="wO-OsxOiEzW93JoE6HdS-1" vertex="1">
                    <mxGeometry x="440" y="1160" width="160" height="80" as="geometry"/>
                </mxCell>
                <mxCell id="geOcQRhZZUnDdlZQxwoY-49" value="Jump out" style="text;html=1;strokeColor=none;fillColor=none;align=center;verticalAlign=middle;whiteSpace=wrap;rounded=0;" parent="wO-OsxOiEzW93JoE6HdS-1" vertex="1">
                    <mxGeometry x="680" y="490" width="60" height="20" as="geometry"/>
                </mxCell>
                <mxCell id="geOcQRhZZUnDdlZQxwoY-54" value="OnEndDrag" style="ellipse;whiteSpace=wrap;html=1;rounded=0;strokeColor=#FFFFFF;" parent="wO-OsxOiEzW93JoE6HdS-1" vertex="1">
                    <mxGeometry x="460" y="1320" width="120" height="40" as="geometry"/>
                </mxCell>
            </root>
        </mxGraphModel>
    </diagram>
    <diagram name="OnEndDrag" id="DJSTWs0IKiV0_bnMzev1">
        <mxGraphModel dx="992" dy="577" grid="1" gridSize="10" guides="1" tooltips="1" connect="1" arrows="1" fold="1" page="1" pageScale="1" pageWidth="827" pageHeight="1169" math="0" shadow="0">
            <root>
                <mxCell id="dRqXznffdpIf_1PDgIVk-0"/>
                <mxCell id="dRqXznffdpIf_1PDgIVk-1" parent="dRqXznffdpIf_1PDgIVk-0"/>
                <mxCell id="bPorKF9iEXxcXDHrQUdH-36" style="edgeStyle=orthogonalEdgeStyle;rounded=0;orthogonalLoop=1;jettySize=auto;html=1;exitX=0.5;exitY=1;exitDx=0;exitDy=0;entryX=0.5;entryY=0;entryDx=0;entryDy=0;endArrow=classic;endFill=1;" parent="dRqXznffdpIf_1PDgIVk-1" source="dRqXznffdpIf_1PDgIVk-10" target="bPorKF9iEXxcXDHrQUdH-34" edge="1">
                    <mxGeometry relative="1" as="geometry"/>
                </mxCell>
                <mxCell id="dRqXznffdpIf_1PDgIVk-10" value="OnEndDrag" style="ellipse;whiteSpace=wrap;html=1;" parent="dRqXznffdpIf_1PDgIVk-1" vertex="1">
                    <mxGeometry x="460" y="40" width="120" height="40" as="geometry"/>
                </mxCell>
                <mxCell id="dRqXznffdpIf_1PDgIVk-11" value="" style="rounded=0;whiteSpace=wrap;html=1;strokeColor=#FFFFFF;fillColor=none;dashed=1;" parent="dRqXznffdpIf_1PDgIVk-1" vertex="1">
                    <mxGeometry x="40" y="50" width="190" height="150" as="geometry"/>
                </mxCell>
                <mxCell id="dRqXznffdpIf_1PDgIVk-12" value="" style="rounded=1;whiteSpace=wrap;html=1;" parent="dRqXznffdpIf_1PDgIVk-1" vertex="1">
                    <mxGeometry x="40" y="140" width="190" height="60" as="geometry"/>
                </mxCell>
                <mxCell id="dRqXznffdpIf_1PDgIVk-13" value="" style="rounded=1;whiteSpace=wrap;html=1;" parent="dRqXznffdpIf_1PDgIVk-1" vertex="1">
                    <mxGeometry x="40" y="80" width="190" height="60" as="geometry"/>
                </mxCell>
                <mxCell id="dRqXznffdpIf_1PDgIVk-14" value="BlockGrid" style="rounded=0;whiteSpace=wrap;html=1;" parent="dRqXznffdpIf_1PDgIVk-1" vertex="1">
                    <mxGeometry x="110" y="50" width="50" height="50" as="geometry"/>
                </mxCell>
                <mxCell id="dRqXznffdpIf_1PDgIVk-17" value="preSelectedBlockGrids:&lt;br&gt;Resize to normal after mouse leave" style="text;html=1;strokeColor=none;fillColor=none;align=left;verticalAlign=top;whiteSpace=wrap;rounded=0;" parent="dRqXznffdpIf_1PDgIVk-1" vertex="1">
                    <mxGeometry x="40" y="280" width="210" height="90" as="geometry"/>
                </mxCell>
                <mxCell id="bPorKF9iEXxcXDHrQUdH-3" style="edgeStyle=orthogonalEdgeStyle;rounded=0;orthogonalLoop=1;jettySize=auto;html=1;exitX=0.5;exitY=1;exitDx=0;exitDy=0;endArrow=classic;endFill=1;" parent="dRqXznffdpIf_1PDgIVk-1" source="dRqXznffdpIf_1PDgIVk-51" target="bPorKF9iEXxcXDHrQUdH-2" edge="1">
                    <mxGeometry relative="1" as="geometry"/>
                </mxCell>
                <mxCell id="dRqXznffdpIf_1PDgIVk-51" value="if there is d.BlockGrid and accessAllow" style="rhombus;whiteSpace=wrap;html=1;rounded=0;strokeColor=#FFFFFF;" parent="dRqXznffdpIf_1PDgIVk-1" vertex="1">
                    <mxGeometry x="440" y="240" width="160" height="80" as="geometry"/>
                </mxCell>
                <mxCell id="bPorKF9iEXxcXDHrQUdH-6" style="edgeStyle=orthogonalEdgeStyle;rounded=0;orthogonalLoop=1;jettySize=auto;html=1;exitX=0.5;exitY=1;exitDx=0;exitDy=0;entryX=0.5;entryY=0;entryDx=0;entryDy=0;endArrow=classic;endFill=1;" parent="dRqXznffdpIf_1PDgIVk-1" source="bPorKF9iEXxcXDHrQUdH-2" target="bPorKF9iEXxcXDHrQUdH-5" edge="1">
                    <mxGeometry relative="1" as="geometry"/>
                </mxCell>
                <mxCell id="bPorKF9iEXxcXDHrQUdH-2" value="Move all Blocks to d.BlockGrid" style="rounded=0;whiteSpace=wrap;html=1;strokeColor=#FFFFFF;" parent="dRqXznffdpIf_1PDgIVk-1" vertex="1">
                    <mxGeometry x="460" y="360" width="120" height="40" as="geometry"/>
                </mxCell>
                <mxCell id="bPorKF9iEXxcXDHrQUdH-40" style="edgeStyle=orthogonalEdgeStyle;rounded=0;orthogonalLoop=1;jettySize=auto;html=1;exitX=0.5;exitY=1;exitDx=0;exitDy=0;entryX=0.5;entryY=0;entryDx=0;entryDy=0;endArrow=classic;endFill=1;" parent="dRqXznffdpIf_1PDgIVk-1" source="bPorKF9iEXxcXDHrQUdH-5" target="bPorKF9iEXxcXDHrQUdH-39" edge="1">
                    <mxGeometry relative="1" as="geometry"/>
                </mxCell>
                <mxCell id="bPorKF9iEXxcXDHrQUdH-5" value="Destroy the placeholder" style="rounded=0;whiteSpace=wrap;html=1;strokeColor=#FFFFFF;" parent="dRqXznffdpIf_1PDgIVk-1" vertex="1">
                    <mxGeometry x="460" y="440" width="120" height="40" as="geometry"/>
                </mxCell>
                <mxCell id="bPorKF9iEXxcXDHrQUdH-7" value="" style="rounded=0;whiteSpace=wrap;html=1;strokeColor=#FFFFFF;fillColor=none;dashed=1;" parent="dRqXznffdpIf_1PDgIVk-1" vertex="1">
                    <mxGeometry x="40" y="360" width="190" height="110" as="geometry"/>
                </mxCell>
                <mxCell id="bPorKF9iEXxcXDHrQUdH-8" value="" style="rounded=1;whiteSpace=wrap;html=1;" parent="dRqXznffdpIf_1PDgIVk-1" vertex="1">
                    <mxGeometry x="40" y="430" width="190" height="40" as="geometry"/>
                </mxCell>
                <mxCell id="bPorKF9iEXxcXDHrQUdH-9" value="" style="rounded=1;whiteSpace=wrap;html=1;" parent="dRqXznffdpIf_1PDgIVk-1" vertex="1">
                    <mxGeometry x="40" y="390" width="190" height="40" as="geometry"/>
                </mxCell>
                <mxCell id="bPorKF9iEXxcXDHrQUdH-10" value="o.BlockGrid" style="rounded=0;whiteSpace=wrap;html=1;" parent="dRqXznffdpIf_1PDgIVk-1" vertex="1">
                    <mxGeometry x="100" y="360" width="70" height="70" as="geometry"/>
                </mxCell>
                <mxCell id="bPorKF9iEXxcXDHrQUdH-11" value="" style="rounded=0;whiteSpace=wrap;html=1;strokeColor=#FFFFFF;fillColor=none;dashed=1;" parent="dRqXznffdpIf_1PDgIVk-1" vertex="1">
                    <mxGeometry x="40" y="520" width="190" height="70" as="geometry"/>
                </mxCell>
                <mxCell id="bPorKF9iEXxcXDHrQUdH-13" value="" style="rounded=1;whiteSpace=wrap;html=1;" parent="dRqXznffdpIf_1PDgIVk-1" vertex="1">
                    <mxGeometry x="40" y="550" width="190" height="40" as="geometry"/>
                </mxCell>
                <mxCell id="bPorKF9iEXxcXDHrQUdH-14" value="d.BlockGrid" style="rounded=0;whiteSpace=wrap;html=1;" parent="dRqXznffdpIf_1PDgIVk-1" vertex="1">
                    <mxGeometry x="100" y="520" width="70" height="70" as="geometry"/>
                </mxCell>
                <mxCell id="bPorKF9iEXxcXDHrQUdH-15" style="edgeStyle=orthogonalEdgeStyle;rounded=0;orthogonalLoop=1;jettySize=auto;html=1;exitX=0.5;exitY=1;exitDx=0;exitDy=0;endArrow=classic;endFill=1;" parent="dRqXznffdpIf_1PDgIVk-1" edge="1">
                    <mxGeometry relative="1" as="geometry">
                        <mxPoint x="345" y="730" as="sourcePoint"/>
                        <mxPoint x="345" y="730" as="targetPoint"/>
                    </mxGeometry>
                </mxCell>
                <mxCell id="bPorKF9iEXxcXDHrQUdH-16" value="" style="rounded=0;whiteSpace=wrap;html=1;strokeColor=#FFFFFF;fillColor=none;dashed=1;" parent="dRqXznffdpIf_1PDgIVk-1" vertex="1">
                    <mxGeometry x="160" y="640" width="190" height="70" as="geometry"/>
                </mxCell>
                <mxCell id="bPorKF9iEXxcXDHrQUdH-17" value="" style="rounded=1;whiteSpace=wrap;html=1;" parent="dRqXznffdpIf_1PDgIVk-1" vertex="1">
                    <mxGeometry x="160" y="670" width="190" height="40" as="geometry"/>
                </mxCell>
                <mxCell id="bPorKF9iEXxcXDHrQUdH-18" value="f.BlockGrid" style="rounded=0;whiteSpace=wrap;html=1;" parent="dRqXznffdpIf_1PDgIVk-1" vertex="1">
                    <mxGeometry x="220" y="640" width="70" height="70" as="geometry"/>
                </mxCell>
                <mxCell id="bPorKF9iEXxcXDHrQUdH-19" style="edgeStyle=orthogonalEdgeStyle;rounded=0;orthogonalLoop=1;jettySize=auto;html=1;exitX=0.5;exitY=1;exitDx=0;exitDy=0;endArrow=classic;endFill=1;" parent="dRqXznffdpIf_1PDgIVk-1" source="bPorKF9iEXxcXDHrQUdH-16" target="bPorKF9iEXxcXDHrQUdH-16" edge="1">
                    <mxGeometry relative="1" as="geometry"/>
                </mxCell>
                <mxCell id="bPorKF9iEXxcXDHrQUdH-31" value="" style="aspect=fixed;pointerEvents=1;shadow=0;dashed=0;html=1;labelPosition=center;verticalLabelPosition=bottom;verticalAlign=top;align=center;shape=mxgraph.mscae.enterprise.mouse;rounded=0;" parent="dRqXznffdpIf_1PDgIVk-1" vertex="1">
                    <mxGeometry x="310" y="685" width="30" height="50" as="geometry"/>
                </mxCell>
                <mxCell id="bPorKF9iEXxcXDHrQUdH-32" value="" style="shape=flexArrow;endArrow=classic;html=1;" parent="dRqXznffdpIf_1PDgIVk-1" edge="1">
                    <mxGeometry width="50" height="50" relative="1" as="geometry">
                        <mxPoint x="310" y="630" as="sourcePoint"/>
                        <mxPoint x="250" y="550" as="targetPoint"/>
                        <Array as="points">
                            <mxPoint x="310" y="550"/>
                        </Array>
                    </mxGeometry>
                </mxCell>
                <mxCell id="bPorKF9iEXxcXDHrQUdH-35" style="edgeStyle=orthogonalEdgeStyle;rounded=0;orthogonalLoop=1;jettySize=auto;html=1;exitX=0.5;exitY=1;exitDx=0;exitDy=0;entryX=0.5;entryY=0;entryDx=0;entryDy=0;endArrow=classic;endFill=1;" parent="dRqXznffdpIf_1PDgIVk-1" source="bPorKF9iEXxcXDHrQUdH-34" target="dRqXznffdpIf_1PDgIVk-51" edge="1">
                    <mxGeometry relative="1" as="geometry"/>
                </mxCell>
                <mxCell id="qsJnvIC0wZ3KtMf7Gv8x-2" style="edgeStyle=orthogonalEdgeStyle;rounded=0;orthogonalLoop=1;jettySize=auto;html=1;exitX=1;exitY=0.5;exitDx=0;exitDy=0;endArrow=classic;endFill=1;" parent="dRqXznffdpIf_1PDgIVk-1" source="bPorKF9iEXxcXDHrQUdH-34" edge="1">
                    <mxGeometry relative="1" as="geometry">
                        <mxPoint x="520" y="420" as="targetPoint"/>
                        <Array as="points">
                            <mxPoint x="640" y="160"/>
                            <mxPoint x="640" y="420"/>
                        </Array>
                    </mxGeometry>
                </mxCell>
                <mxCell id="bPorKF9iEXxcXDHrQUdH-34" value="if d.BlockGrid not on Trash area" style="rhombus;whiteSpace=wrap;html=1;rounded=0;strokeColor=#FFFFFF;" parent="dRqXznffdpIf_1PDgIVk-1" vertex="1">
                    <mxGeometry x="440" y="120" width="160" height="80" as="geometry"/>
                </mxCell>
                <mxCell id="bPorKF9iEXxcXDHrQUdH-42" style="edgeStyle=orthogonalEdgeStyle;rounded=0;orthogonalLoop=1;jettySize=auto;html=1;exitX=0.5;exitY=1;exitDx=0;exitDy=0;entryX=0.5;entryY=0;entryDx=0;entryDy=0;endArrow=classic;endFill=1;" parent="dRqXznffdpIf_1PDgIVk-1" source="bPorKF9iEXxcXDHrQUdH-39" target="bPorKF9iEXxcXDHrQUdH-41" edge="1">
                    <mxGeometry relative="1" as="geometry"/>
                </mxCell>
                <mxCell id="bPorKF9iEXxcXDHrQUdH-39" value="if o.BlockGrid have 0 child" style="rhombus;whiteSpace=wrap;html=1;rounded=0;strokeColor=#FFFFFF;" parent="dRqXznffdpIf_1PDgIVk-1" vertex="1">
                    <mxGeometry x="440" y="520" width="160" height="80" as="geometry"/>
                </mxCell>
                <mxCell id="bPorKF9iEXxcXDHrQUdH-44" style="edgeStyle=orthogonalEdgeStyle;rounded=0;orthogonalLoop=1;jettySize=auto;html=1;exitX=0.5;exitY=1;exitDx=0;exitDy=0;entryX=0.5;entryY=0;entryDx=0;entryDy=0;endArrow=classic;endFill=1;" parent="dRqXznffdpIf_1PDgIVk-1" source="bPorKF9iEXxcXDHrQUdH-41" target="bPorKF9iEXxcXDHrQUdH-43" edge="1">
                    <mxGeometry relative="1" as="geometry"/>
                </mxCell>
                <mxCell id="bPorKF9iEXxcXDHrQUdH-41" value="&lt;span&gt;Destroy the o.BlockGrid&lt;/span&gt;" style="rounded=0;whiteSpace=wrap;html=1;strokeColor=#FFFFFF;" parent="dRqXznffdpIf_1PDgIVk-1" vertex="1">
                    <mxGeometry x="460" y="640" width="120" height="40" as="geometry"/>
                </mxCell>
                <mxCell id="qsJnvIC0wZ3KtMf7Gv8x-1" style="edgeStyle=orthogonalEdgeStyle;rounded=0;orthogonalLoop=1;jettySize=auto;html=1;exitX=0.5;exitY=1;exitDx=0;exitDy=0;entryX=0.5;entryY=0;entryDx=0;entryDy=0;endArrow=classic;endFill=1;" parent="dRqXznffdpIf_1PDgIVk-1" source="bPorKF9iEXxcXDHrQUdH-43" target="qsJnvIC0wZ3KtMf7Gv8x-0" edge="1">
                    <mxGeometry relative="1" as="geometry"/>
                </mxCell>
                <mxCell id="bPorKF9iEXxcXDHrQUdH-43" value="gameManager&lt;br&gt;Reset all info" style="ellipse;whiteSpace=wrap;html=1;rounded=0;strokeColor=#FFFFFF;" parent="dRqXznffdpIf_1PDgIVk-1" vertex="1">
                    <mxGeometry x="460" y="720" width="120" height="40" as="geometry"/>
                </mxCell>
                <mxCell id="qsJnvIC0wZ3KtMf7Gv8x-0" value="Destroy d.BlockGrid if out of bound or in trasharea" style="rounded=0;whiteSpace=wrap;html=1;strokeColor=#FFFFFF;" parent="dRqXznffdpIf_1PDgIVk-1" vertex="1">
                    <mxGeometry x="460" y="800" width="120" height="40" as="geometry"/>
                </mxCell>
                <mxCell id="qsJnvIC0wZ3KtMf7Gv8x-3" value="" style="endArrow=none;html=1;exitX=1;exitY=0.5;exitDx=0;exitDy=0;" parent="dRqXznffdpIf_1PDgIVk-1" source="dRqXznffdpIf_1PDgIVk-51" edge="1">
                    <mxGeometry width="50" height="50" relative="1" as="geometry">
                        <mxPoint x="690" y="340" as="sourcePoint"/>
                        <mxPoint x="640" y="280" as="targetPoint"/>
                    </mxGeometry>
                </mxCell>
            </root>
        </mxGraphModel>
    </diagram>
</mxfile>